<?xml version="1.0" encoding="iso-8859-1"?>
<!-- Uploaded to: SVG Repo, www.svgrepo.com, Generator: SVG Repo Mixer Tools -->
<svg height="800px" width="800px" version="1.1" id="Capa_1" xmlns="http://www.w3.org/2000/svg" xmlns:xlink="http://www.w3.org/1999/xlink" 
	 viewBox="0 0 57.581 57.581" xml:space="preserve">
<g>
	<path style="fill:#030104;" d="M53.529,11.54c0.589,0,1.063-0.476,1.063-1.064s-0.477-1.064-1.063-1.064h-2.485v-7.28h2.485
		c0.589,0,1.063-0.479,1.063-1.066s-0.477-1.064-1.063-1.064L4.052,0C3.464,0,2.988,0.478,2.988,1.065s0.476,1.066,1.064,1.066
		h1.951V9.41H4.052c-0.588,0-1.064,0.477-1.064,1.065s0.477,1.064,1.064,1.064h9.113v34.504H4.052c-0.588,0-1.064,0.477-1.064,1.064
		c0,0.589,0.477,1.064,1.064,1.064h1.951v7.28H4.052c-0.588,0-1.064,0.478-1.064,1.065s0.477,1.065,1.064,1.065h49.476
		c0.59,0.002,1.064-0.477,1.064-1.065c0-0.588-0.477-1.064-1.063-1.064h-2.485v-7.279h2.485c0.589,0,1.063-0.477,1.063-1.065
		s-0.477-1.063-1.063-1.063h-8.879V11.54H53.529z M33.877,2.132h6.453v7.279h-6.453V2.132z M25.298,2.132h6.451v7.279h-6.451V2.132z
		 M16.716,2.132h6.451v7.279h-6.451V2.132z M14.585,55.454H8.134v-7.28h6.451C14.585,48.174,14.585,55.454,14.585,55.454z
		 M14.585,9.41H8.134V2.131h6.451C14.585,2.131,14.585,9.41,14.585,9.41z M14.586,11.54H43.23v34.504H14.586V11.54z M23.167,55.454
		h-6.451v-7.278h6.451V55.454z M31.749,55.454h-6.451v-7.278h6.451V55.454z M40.332,55.454h-6.453v-7.278h6.453V55.454z
		 M48.913,48.176v7.278h-6.451v-7.278H48.913z M42.461,9.411V2.132h6.451v7.279H42.461z"/>
</g>
</svg>